<svg width="229" height="91" viewBox="0 0 229 91" fill="none" xmlns="http://www.w3.org/2000/svg">
<path d="M0.678978 72.8068V60.2358L37.7102 1.72727H48.1932V19.625H41.8011L16.8722 59.1278V59.8097H68.5625V72.8068H0.678978ZM42.3125 89V68.9716L42.483 63.3466V1.72727H57.3977V89H42.3125ZM114.436 90.6619C107.419 90.6619 101.396 88.8864 96.3679 85.3352C91.3679 81.7557 87.5185 76.5994 84.8196 69.8665C82.1491 63.1051 80.8139 54.9659 80.8139 45.4489C80.8423 35.9318 82.1918 27.8352 84.8622 21.1591C87.5611 14.4545 91.4105 9.34091 96.4105 5.81818C101.439 2.29545 107.447 0.534088 114.436 0.534088C121.425 0.534088 127.433 2.29545 132.462 5.81818C137.49 9.34091 141.339 14.4545 144.01 21.1591C146.709 27.8636 148.058 35.9602 148.058 45.4489C148.058 54.9943 146.709 63.1477 144.01 69.9091C141.339 76.642 137.49 81.7841 132.462 85.3352C127.462 88.8864 121.453 90.6619 114.436 90.6619ZM114.436 77.3239C119.891 77.3239 124.195 74.6392 127.348 69.2699C130.53 63.8722 132.121 55.9318 132.121 45.4489C132.121 38.517 131.396 32.6932 129.947 27.9773C128.499 23.2614 126.453 19.7102 123.811 17.3239C121.169 14.9091 118.044 13.7017 114.436 13.7017C109.01 13.7017 104.72 16.4006 101.567 21.7983C98.4134 27.1676 96.8224 35.0511 96.794 45.4489C96.7656 52.4091 97.4616 58.2614 98.8821 63.0057C100.331 67.75 102.376 71.3295 105.018 73.7443C107.661 76.1307 110.8 77.3239 114.436 77.3239ZM160.64 72.8068V60.2358L197.671 1.72727H208.154V19.625H201.762L176.833 59.1278V59.8097H228.523V72.8068H160.64ZM202.273 89V68.9716L202.444 63.3466V1.72727H217.359V89H202.273Z" fill="url(#paint0_linear_704_10017)"/>
<defs>
<linearGradient id="paint0_linear_704_10017" x1="174.5" y1="108.287" x2="122.432" y2="-40.9827" gradientUnits="userSpaceOnUse">
<stop stop-color="#0182A2"/>
<stop offset="0.69" stop-color="#78CB94"/>
<stop offset="1" stop-color="#A8E88F"/>
</linearGradient>
</defs>
</svg>
