<svg width="316" height="1024" viewBox="0 0 316 1024" fill="none" xmlns="http://www.w3.org/2000/svg">
<path d="M152.76 396.292L158.974 391.856C161.118 390.325 161.616 387.345 160.085 385.2L159.497 384.377C157.966 382.232 154.986 381.734 152.842 383.265L146.627 387.701C144.482 389.232 143.984 392.212 145.516 394.357L146.103 395.18C147.634 397.326 150.614 397.823 152.76 396.292Z" fill="#0182A2"/>
<path d="M193.153 377.452L213.645 362.823C214.719 362.058 214.968 360.568 214.202 359.496L214.047 359.28C213.283 358.207 211.793 357.958 210.719 358.723L190.226 373.352C189.153 374.118 188.904 375.608 189.67 376.68L189.824 376.897C190.589 377.969 192.079 378.218 193.153 377.452Z" fill="#4B5563"/>
<path d="M182.242 362.17L202.737 347.542C203.809 346.776 204.058 345.286 203.292 344.214L203.138 343.997C202.372 342.925 200.882 342.676 199.81 343.442L179.316 358.07C178.244 358.836 177.995 360.326 178.76 361.398L178.914 361.615C179.679 362.687 181.17 362.936 182.242 362.17Z" fill="#4B5563"/>
<path d="M168.87 396.382L185.479 384.527C187.625 382.995 188.123 380.014 186.592 377.87L175.775 362.718C174.244 360.573 171.264 360.075 169.119 361.606L152.509 373.462C150.364 374.993 149.866 377.973 151.398 380.119L162.213 395.271C163.744 397.415 166.724 397.913 168.87 396.382Z" fill="#A8E88F"/>
<path d="M184.24 387.529L200.85 375.672C202.995 374.141 203.493 371.162 201.961 369.016L189.058 350.939C187.527 348.794 184.547 348.297 182.402 349.828L165.792 361.683C163.647 363.214 163.149 366.194 164.68 368.34L177.584 386.417C179.115 388.562 182.095 389.06 184.24 387.529Z" fill="#A8E88F"/>
<path d="M182.443 392.381L182.573 392.288C184.003 391.267 184.335 389.28 183.314 387.85L165.238 362.526C164.217 361.096 162.231 360.764 160.801 361.784L160.671 361.878C159.24 362.899 158.908 364.885 159.929 366.315L178.005 391.639C179.025 393.069 181.013 393.401 182.443 392.381Z" fill="#0182A2"/>
<path d="M283.563 309.987L289.776 305.551C291.922 304.02 292.419 301.04 290.888 298.894L290.301 298.072C288.769 295.926 285.789 295.428 283.644 296.96L277.43 301.396C275.285 302.927 274.787 305.907 276.319 308.052L276.906 308.875C278.437 311.021 281.417 311.518 283.563 309.987Z" fill="#0182A2"/>
<path d="M274.938 324.477L284.148 317.903C286.293 316.372 286.791 313.392 285.259 311.247L276.79 299.382C275.259 297.236 272.278 296.738 270.133 298.269L260.924 304.843C258.779 306.375 258.281 309.355 259.812 311.5L268.282 323.365C269.813 325.511 272.793 326.009 274.938 324.477Z" fill="#78CB94"/>
<path d="M260.618 339.197L274.352 329.394C276.497 327.863 276.995 324.883 275.463 322.737L262.56 304.66C261.029 302.514 258.049 302.017 255.904 303.548L242.17 313.351C240.024 314.883 239.526 317.863 241.058 320.008L253.961 338.085C255.493 340.231 258.472 340.729 260.618 339.197Z" fill="#A8E88F"/>
<path d="M258.499 344.225L258.63 344.132C260.061 343.111 260.391 341.124 259.371 339.694L241.295 314.369C240.274 312.94 238.287 312.608 236.857 313.628L236.727 313.722C235.297 314.743 234.965 316.729 235.986 318.16L254.062 343.483C255.083 344.913 257.069 345.245 258.499 344.225Z" fill="#0182A2"/>
<path d="M224.325 372.601C224.891 372.515 225.468 372.651 225.936 372.982C226.402 373.313 226.723 373.812 226.83 374.375L231.265 395.484C231.53 396.745 230.734 397.97 229.514 398.179L227.813 398.47C226.593 398.68 225.44 397.789 225.277 396.51L222.542 375.11C222.458 374.543 222.598 373.966 222.93 373.498C223.262 373.03 223.762 372.709 224.325 372.601Z" fill="#E5E7EB"/>
<path d="M233.679 368.172C233.837 368.076 234.011 368.012 234.194 367.983C234.376 367.955 234.562 367.963 234.741 368.007C234.921 368.049 235.089 368.127 235.238 368.237C235.387 368.345 235.514 368.483 235.61 368.64L243.145 380.491C243.362 380.827 243.436 381.237 243.352 381.627C243.268 382.019 243.033 382.361 242.696 382.578L241.728 383.179C241.562 383.28 241.375 383.345 241.182 383.371C240.989 383.397 240.794 383.382 240.606 383.328C240.419 383.274 240.245 383.182 240.095 383.057C239.945 382.933 239.823 382.779 239.736 382.604L233.168 370.152C232.989 369.819 232.942 369.43 233.036 369.062C233.131 368.696 233.36 368.378 233.679 368.172Z" fill="#E5E7EB"/>
<path d="M237.167 359.239C237.654 358.141 239.123 357.759 240.497 358.373L264.888 369.28C266.346 369.932 267.129 371.446 266.613 372.61L265.893 374.234C265.376 375.399 263.767 375.745 262.353 374.997L238.681 362.466C237.348 361.761 236.68 360.336 237.167 359.239Z" fill="#E5E7EB"/>
<path d="M216.644 319.684C216.075 319.623 215.551 319.343 215.184 318.904C214.816 318.465 214.634 317.9 214.674 317.329L215.777 295.787C215.843 294.501 216.926 293.52 218.16 293.629L219.879 293.781C221.112 293.891 221.999 295.047 221.831 296.324L219.009 317.713C218.944 318.283 218.663 318.806 218.222 319.173C217.782 319.541 217.217 319.724 216.644 319.684Z" fill="#E5E7EB"/>
<path d="M206.47 321.577C206.294 321.63 206.107 321.647 205.924 321.628C205.741 321.608 205.563 321.554 205.4 321.466C205.238 321.378 205.094 321.259 204.978 321.116C204.863 320.973 204.775 320.809 204.723 320.631L200.464 307.248C200.341 306.867 200.372 306.454 200.554 306.097C200.735 305.74 201.051 305.469 201.43 305.345L202.52 305.012C202.707 304.957 202.903 304.941 203.096 304.966C203.29 304.99 203.475 305.055 203.643 305.154C203.81 305.254 203.955 305.387 204.068 305.546C204.18 305.706 204.259 305.886 204.3 306.076L207.469 319.791C207.557 320.161 207.503 320.549 207.318 320.88C207.133 321.211 206.83 321.459 206.47 321.577Z" fill="#E5E7EB"/>
<path d="M200.815 329.324C200.064 330.261 198.546 330.255 197.375 329.31L176.577 312.536C175.336 311.533 174.964 309.87 175.761 308.875L176.872 307.489C177.669 306.495 179.313 306.571 180.49 307.655L200.177 325.816C201.284 326.838 201.566 328.386 200.815 329.324Z" fill="#E5E7EB"/>
<path d="M240.946 -480C85.113 -442.833 -152.754 -303 142.446 -41L218.446 20C238.946 34.8333 268.946 84 224.946 162C203.613 191.833 173.746 251.3 224.946 250.5C235.78 248.333 260.446 242.3 272.446 235.5C284.946 231.667 309.946 231.3 309.946 260.5C309.113 269.833 303.946 290.8 289.946 300" stroke="#4B5563" stroke-width="3"/>
<path d="M148.446 395.5C131.446 406.833 105.346 436.3 136.946 463.5C141.446 466 154.646 468.5 171.446 458.5C187.946 451.167 223.146 440.9 231.946 458.5C237.613 464.333 240.546 489.7 206.946 544.5C191.113 569.833 168.346 629.7 203.946 666.5C244.446 695.833 323.046 765 313.446 807C313.613 823.667 299.946 869.3 243.946 918.5C207.78 949.667 161.546 1042.1 265.946 1162.5" stroke="#4B5563" stroke-width="3"/>
</svg>
