<svg width="32" height="32" viewBox="0 0 32 32" fill="none" xmlns="http://www.w3.org/2000/svg">
<rect x="32" y="32" width="32" height="32" rx="7.61905" transform="rotate(180 32 32)" fill="#9CA3AF"/>
<path d="M16.5427 13.3848L16.5427 13.3847L16.5365 13.3792C16.2845 13.1572 15.9806 13.0591 15.6834 13.0591C15.3663 13.0591 15.0669 13.188 14.8302 13.3965L14.8302 13.3965L14.8246 13.4016L10.0846 17.7465L10.0845 17.7463L10.0756 17.7551C9.82935 17.996 9.75284 18.4338 10.0579 18.7323C10.3001 18.9694 10.7295 19.0412 11.028 18.7544L15.6834 14.4701L20.3422 18.7577L20.3487 18.7636L20.3554 18.7692C20.6234 18.9941 21.0396 18.9958 21.3088 18.7323L21.3193 18.7221L21.329 18.711C21.5636 18.4431 21.5645 18.0226 21.2911 17.755L21.2913 17.7549L21.2827 17.747L16.5427 13.3848Z" fill="white" stroke="white" stroke-width="0.761905"/>
</svg>
