<svg width="32" height="32" viewBox="0 0 32 32" fill="none" xmlns="http://www.w3.org/2000/svg">
<rect width="32" height="32" rx="7.61905" fill="#9CA3AF"/>
<path d="M15.4571 18.6152L15.457 18.6153L15.4632 18.6208C15.7153 18.8428 16.0192 18.9409 16.3164 18.9409C16.6335 18.9409 16.9328 18.812 17.1695 18.6035L17.1696 18.6035L17.1752 18.5984L21.9151 14.2535L21.9153 14.2537L21.9242 14.2449C22.1704 14.004 22.2469 13.5662 21.9419 13.2677C21.6997 13.0306 21.2702 12.9588 20.9717 13.2456L16.3164 17.5299L11.6575 13.2423L11.6511 13.2364L11.6444 13.2308C11.3764 13.0059 10.9602 13.0042 10.6909 13.2677L10.6805 13.2779L10.6708 13.289C10.4361 13.5569 10.4353 13.9774 10.7086 14.245L10.7085 14.2451L10.7171 14.253L15.4571 18.6152Z" fill="white" stroke="white" stroke-width="0.761905"/>
</svg>
