<svg width="24" height="24" viewBox="0 0 24 24" fill="none" xmlns="http://www.w3.org/2000/svg">
<path d="M9.88819 10.0684C9.20419 10.0684 8.66418 10.6684 8.66418 11.4004C8.66418 12.1324 9.21619 12.7324 9.88819 12.7324C10.5722 12.7324 11.1122 12.1324 11.1122 11.4004C11.1242 10.6684 10.5722 10.0684 9.88819 10.0684ZM14.2682 10.0684C13.5842 10.0684 13.0442 10.6684 13.0442 11.4004C13.0442 12.1324 13.5962 12.7324 14.2682 12.7324C14.9522 12.7324 15.4922 12.1324 15.4922 11.4004C15.4922 10.6684 14.9522 10.0684 14.2682 10.0684Z" fill="#E5E7EB"/>
<path d="M20.1001 0H4.02012C2.66412 0 1.56012 1.104 1.56012 2.472V18.696C1.56012 20.064 2.66412 21.168 4.02012 21.168H17.6281L16.9921 18.948L18.5281 20.376L19.9801 21.72L22.5601 24V2.472C22.5601 1.104 21.4561 0 20.1001 0ZM15.4681 15.672C15.4681 15.672 15.0361 15.156 14.6761 14.7C16.2481 14.256 16.8481 13.272 16.8481 13.272C16.3561 13.596 15.8881 13.824 15.4681 13.98C14.8681 14.232 14.2921 14.4 13.7281 14.496C12.5761 14.712 11.5201 14.652 10.6201 14.484C9.93612 14.352 9.34812 14.16 8.85612 13.968C8.58012 13.86 8.28012 13.728 7.98012 13.56C7.94412 13.536 7.90812 13.524 7.87212 13.5C7.84812 13.488 7.83612 13.476 7.82412 13.464C7.60812 13.344 7.48812 13.26 7.48812 13.26C7.48812 13.26 8.06412 14.22 9.58812 14.676C9.22812 15.132 8.78412 15.672 8.78412 15.672C6.13212 15.588 5.12412 13.848 5.12412 13.848C5.12412 9.984 6.85212 6.852 6.85212 6.852C8.58012 5.556 10.2241 5.592 10.2241 5.592L10.3441 5.736C8.18412 6.36 7.18812 7.308 7.18812 7.308C7.18812 7.308 7.45212 7.164 7.89612 6.96C9.18012 6.396 10.2001 6.24 10.6201 6.204C10.6921 6.192 10.7521 6.18 10.8241 6.18C11.5561 6.084 12.3841 6.06 13.2481 6.156C14.3881 6.288 15.6121 6.624 16.8601 7.308C16.8601 7.308 15.9121 6.408 13.8721 5.784L14.0401 5.592C14.0401 5.592 15.6841 5.556 17.4121 6.852C17.4121 6.852 19.1401 9.984 19.1401 13.848C19.1401 13.848 18.1201 15.588 15.4681 15.672Z" fill="#E5E7EB"/>
</svg>
