<svg width="17" height="12" viewBox="0 0 17 12" fill="none" xmlns="http://www.w3.org/2000/svg">
<path d="M13.6991 0.997273C12.6858 0.532395 11.5886 0.194983 10.4457 3.44896e-05C10.4357 -0.00028088 10.4257 0.0015697 10.4165 0.00545614C10.4073 0.00934258 10.399 0.0151705 10.3924 0.0225288C10.2552 0.269964 10.0952 0.592379 9.98854 0.839815C8.77632 0.659862 7.54353 0.659862 6.3313 0.839815C6.22463 0.584881 6.06463 0.269964 5.91986 0.0225288C5.91224 0.00753268 5.88938 3.44896e-05 5.86653 3.44896e-05C4.72364 0.194983 3.63408 0.532395 2.6131 0.997273C2.60548 0.997273 2.59787 1.00477 2.59025 1.01227C0.517809 4.06397 -0.0536357 7.03319 0.228277 9.97242C0.228277 9.98742 0.235896 10.0024 0.251135 10.0099C1.6226 10.9997 2.94073 11.5995 4.24363 11.9969C4.26648 12.0044 4.28934 11.9969 4.29696 11.9819C4.60173 11.5695 4.87602 11.1346 5.11222 10.6772C5.12746 10.6472 5.11222 10.6173 5.08174 10.6098C4.64745 10.4448 4.23601 10.2499 3.83219 10.0249C3.80171 10.0099 3.80171 9.96493 3.82457 9.94243C3.90838 9.88245 3.99219 9.81497 4.076 9.75498C4.09124 9.73998 4.1141 9.73998 4.12934 9.74748C6.75036 10.9247 9.5771 10.9247 12.1677 9.74748C12.1829 9.73998 12.2057 9.73998 12.221 9.75498C12.3048 9.82246 12.3886 9.88245 12.4724 9.94993C12.5029 9.97242 12.5029 10.0174 12.4648 10.0324C12.0686 10.2648 11.6495 10.4523 11.2152 10.6173C11.1848 10.6248 11.1771 10.6622 11.1848 10.6847C11.4286 11.1421 11.7029 11.577 12 11.9894C12.0229 11.9969 12.0457 12.0044 12.0686 11.9969C13.3791 11.5995 14.6972 10.9997 16.0687 10.0099C16.0839 10.0024 16.0916 9.98742 16.0916 9.97242C16.4268 6.57581 15.5354 3.62908 13.7296 1.01227C13.722 1.00477 13.7144 0.997273 13.6991 0.997273ZM5.50842 8.18039C4.72364 8.18039 4.06838 7.46808 4.06838 6.59081C4.06838 5.71354 4.7084 5.00122 5.50842 5.00122C6.31606 5.00122 6.95608 5.72104 6.94846 6.59081C6.94846 7.46808 6.30844 8.18039 5.50842 8.18039ZM10.819 8.18039C10.0343 8.18039 9.379 7.46808 9.379 6.59081C9.379 5.71354 10.019 5.00122 10.819 5.00122C11.6267 5.00122 12.2667 5.72104 12.2591 6.59081C12.2591 7.46808 11.6267 8.18039 10.819 8.18039Z" fill="white"/>
</svg>
