<svg width="20" height="20" viewBox="0 0 20 20" fill="none" xmlns="http://www.w3.org/2000/svg">
<path d="M1.01426 12.086C1.03868 12.0062 1.08797 11.9363 1.15494 11.8865C1.2219 11.8367 1.30302 11.8097 1.38647 11.8093L1.50099 11.8283C2.93272 12.223 4.4435 12.2309 5.87931 11.8514C7.31512 11.4719 8.6246 10.7185 9.67426 9.66803C10.7239 8.61755 11.4762 7.30755 11.8544 5.8716C12.2327 4.43564 12.2233 2.92508 11.8273 1.49392C11.8195 1.466 11.8163 1.437 11.8178 1.40804C11.812 1.32735 11.8319 1.24689 11.8748 1.17829C11.9177 1.10968 11.9813 1.05648 12.0564 1.02635C12.1356 0.994859 12.2231 0.991491 12.3045 1.0168C13.8453 1.44745 15.2465 2.27402 16.3686 3.41426C17.4908 4.5545 18.2947 5.96867 18.7005 7.51604C19.1062 9.06341 19.0996 10.69 18.6814 12.2341C18.2631 13.7781 17.4478 15.1858 16.3165 16.3169C15.1852 17.448 13.7774 18.2633 12.2331 18.6814C10.6889 19.0996 9.06201 19.1062 7.51441 18.7005C5.96682 18.2948 4.55246 17.491 3.41206 16.369C2.27165 15.2471 1.44497 13.8461 1.01426 12.3055C0.995247 12.2335 0.995247 12.1579 1.01426 12.086ZM9.84222 18.2408C11.8179 18.2436 13.7313 17.5498 15.246 16.2815C16.7607 15.0132 17.7797 13.2516 18.1239 11.3064C18.4681 9.36126 18.1154 7.35701 17.1279 5.6461C16.1403 3.93518 14.5811 2.62714 12.7244 1.95196C13.0163 3.42938 12.9397 4.95594 12.5015 6.39677C12.0634 7.83759 11.277 9.14834 10.212 10.2132C9.14695 11.2781 7.83602 12.0643 6.39499 12.5025C4.95395 12.9406 3.42718 13.0171 1.94955 12.7253C2.54419 14.3407 3.61935 15.7352 5.0304 16.7212C6.44146 17.7073 8.1207 18.2376 9.84222 18.2408Z" fill="#F626D1" stroke="#F626D1"/>
</svg>
