<svg width="20" height="20" viewBox="0 0 20 20" fill="none" xmlns="http://www.w3.org/2000/svg">
<path d="M14.6875 6.5L16.6 3.95C16.6836 3.83857 16.7345 3.70608 16.747 3.56735C16.7595 3.42863 16.7331 3.28917 16.6708 3.16459C16.6085 3.04001 16.5128 2.93524 16.3943 2.86201C16.2758 2.78879 16.1393 2.75 16 2.75H7C7 2.55109 6.92098 2.36032 6.78033 2.21967C6.63968 2.07902 6.44891 2 6.25 2C6.05109 2 5.86032 2.07902 5.71967 2.21967C5.57902 2.36032 5.5 2.55109 5.5 2.75V15.5H4.75C4.55109 15.5 4.36032 15.579 4.21967 15.7197C4.07902 15.8603 4 16.0511 4 16.25C4 16.4489 4.07902 16.6397 4.21967 16.7803C4.36032 16.921 4.55109 17 4.75 17H7.75C7.94891 17 8.13968 16.921 8.28033 16.7803C8.42098 16.6397 8.5 16.4489 8.5 16.25C8.5 16.0511 8.42098 15.8603 8.28033 15.7197C8.13968 15.579 7.94891 15.5 7.75 15.5H7V10.25H16C16.1393 10.25 16.2758 10.2112 16.3943 10.138C16.5128 10.0648 16.6085 9.95999 16.6708 9.83541C16.7331 9.71083 16.7595 9.57137 16.747 9.43265C16.7345 9.29393 16.6836 9.16143 16.6 9.05L14.6875 6.5ZM13.15 6.95L14.5 8.75H7V4.25H14.5L13.15 6.05C13.0525 6.17977 12.9998 6.33769 12.9998 6.5C12.9998 6.66231 13.0525 6.82023 13.15 6.95Z" fill="#EB5757"/>
</svg>
