<svg width="12" height="14" viewBox="0 0 12 14" fill="none" xmlns="http://www.w3.org/2000/svg">
<path d="M4.5625 12.0031C4.35625 12.025 4.18125 12.0469 4.00625 12.0656C3.09687 12.1562 2.30312 11.9094 1.70312 11.2C1.51562 10.9781 1.40937 10.6906 1.25 10.4438C1.00313 10.0563 0.75 9.67188 0.478125 9.3C0.384375 9.17188 0.221875 9.09688 0.0968752 8.9875C0.0562502 8.95312 0.04375 8.8875 0.015625 8.83438C0.071875 8.8125 0.125 8.775 0.18125 8.76875C0.9 8.70312 1.40625 9.03438 1.75938 9.63125C2.2 10.375 2.8375 10.7812 3.70312 10.7812C3.95312 10.7812 4.20313 10.6969 4.45 10.6406C4.49688 10.6281 4.55313 10.5563 4.55938 10.5031C4.60313 10.1781 4.64375 9.85313 4.79375 9.55625C4.85 9.44688 4.91563 9.34375 4.98125 9.23125C4.72813 9.18125 4.48438 9.14375 4.24375 9.08438C3.13438 8.80313 2.21875 8.24687 1.6875 7.19063C1.48125 6.77813 1.36563 6.33437 1.35 5.87187C1.325 5.15937 1.33438 4.44375 1.47813 3.74063C1.58125 3.24688 1.76875 2.7875 2.14375 2.43125C2.225 2.35312 2.24063 2.28437 2.19688 2.16562C1.9875 1.58125 1.96563 0.9875 2.14375 0.390625C2.18125 0.2625 2.21563 0.134375 2.25313 0C3.10938 0.1625 3.61875 0.740625 4.09688 1.38125C4.59063 1.01562 5.175 0.984375 5.74375 0.946875C6.41875 0.903125 7.09687 0.9125 7.76875 1.02187C8.11875 1.07812 8.33437 1.15 8.675 1.35312C8.96875 1.05 9.24375 0.74375 9.54688 0.465625C9.7875 0.24375 10.0875 0.103125 10.4125 0.0281249C10.5031 0.00624993 10.55 0.0156249 10.5875 0.115625C10.8406 0.80625 10.8781 1.49375 10.6 2.18438C10.5625 2.27813 10.5656 2.34375 10.6437 2.41875C11.0937 2.84687 11.3 3.4 11.3687 3.99688C11.4312 4.55 11.4656 5.10625 11.4656 5.6625C11.4656 6.45313 11.2312 7.17813 10.7344 7.8C10.3844 8.24063 9.93125 8.55625 9.41875 8.79375C8.92188 9.02187 8.40312 9.15312 7.86562 9.22188C7.85313 9.225 7.84062 9.23438 7.81875 9.24375C8.1875 9.77188 8.24688 10.3656 8.24063 10.9812C8.23125 11.8781 8.23438 12.7719 8.24063 13.6687C8.24063 13.8094 8.2 13.8438 8.0625 13.8438C6.95312 13.8375 5.84375 13.8375 4.73438 13.8438C4.59688 13.8438 4.55312 13.8 4.55312 13.6656C4.55937 13.1813 4.55625 12.6969 4.55625 12.2125C4.5625 12.1406 4.5625 12.0781 4.5625 12.0031Z" fill="white"/>
</svg>
