<svg width="25" height="25" viewBox="0 0 25 25" fill="none" xmlns="http://www.w3.org/2000/svg">
<rect opacity="0.5" x="0.597778" width="24.08" height="24.08" rx="5" fill="#A0A0A0"/>
<path d="M11.1447 16.9221C10.9384 16.9439 10.7634 16.9658 10.5884 16.9846C9.67903 17.0752 8.88528 16.8283 8.28528 16.1189C8.09778 15.8971 7.99153 15.6096 7.83215 15.3627C7.58528 14.9752 7.33215 14.5908 7.06028 14.2189C6.96653 14.0908 6.80403 14.0158 6.67903 13.9064C6.6384 13.8721 6.6259 13.8064 6.59778 13.7533C6.65403 13.7314 6.70715 13.6939 6.7634 13.6877C7.48215 13.6221 7.9884 13.9533 8.34153 14.5502C8.78215 15.2939 9.41965 15.7002 10.2853 15.7002C10.5353 15.7002 10.7853 15.6158 11.0322 15.5596C11.079 15.5471 11.1353 15.4752 11.1415 15.4221C11.1853 15.0971 11.2259 14.7721 11.3759 14.4752C11.4322 14.3658 11.4978 14.2627 11.5634 14.1502C11.3103 14.1002 11.0665 14.0627 10.8259 14.0033C9.71653 13.7221 8.8009 13.1658 8.26965 12.1096C8.0634 11.6971 7.94778 11.2533 7.93215 10.7908C7.90715 10.0783 7.91653 9.3627 8.06028 8.65957C8.1634 8.16582 8.3509 7.70645 8.7259 7.3502C8.80715 7.27207 8.82278 7.20332 8.77903 7.08457C8.56965 6.5002 8.54778 5.90645 8.7259 5.30957C8.7634 5.18145 8.79778 5.05332 8.83528 4.91895C9.69153 5.08145 10.2009 5.65957 10.679 6.3002C11.1728 5.93457 11.7572 5.90332 12.3259 5.86582C13.0009 5.82207 13.679 5.83145 14.3509 5.94082C14.7009 5.99707 14.9165 6.06895 15.2572 6.27207C15.5509 5.96895 15.8259 5.6627 16.129 5.38457C16.3697 5.1627 16.6697 5.02207 16.9947 4.94707C17.0853 4.9252 17.1322 4.93457 17.1697 5.03457C17.4228 5.7252 17.4603 6.4127 17.1822 7.10332C17.1447 7.19707 17.1478 7.2627 17.2259 7.3377C17.6759 7.76582 17.8822 8.31895 17.9509 8.91582C18.0134 9.46895 18.0478 10.0252 18.0478 10.5814C18.0478 11.3721 17.8134 12.0971 17.3165 12.7189C16.9665 13.1596 16.5134 13.4752 16.0009 13.7127C15.504 13.9408 14.9853 14.0721 14.4478 14.1408C14.4353 14.1439 14.4228 14.1533 14.4009 14.1627C14.7697 14.6908 14.829 15.2846 14.8228 15.9002C14.8134 16.7971 14.8165 17.6908 14.8228 18.5877C14.8228 18.7283 14.7822 18.7627 14.6447 18.7627C13.5353 18.7564 12.4259 18.7564 11.3165 18.7627C11.179 18.7627 11.1353 18.7189 11.1353 18.5846C11.1415 18.1002 11.1384 17.6158 11.1384 17.1314C11.1447 17.0596 11.1447 16.9971 11.1447 16.9221Z" fill="white"/>
</svg>
