<svg width="25" height="25" viewBox="0 0 25 25" fill="none" xmlns="http://www.w3.org/2000/svg">
<rect opacity="0.5" x="0.597778" width="24.08" height="24.08" rx="5" fill="#A0A0A0"/>
<g clip-path="url(#clip0_2160_42972)">
<path d="M12.5978 14C13.7023 14 14.5978 13.1046 14.5978 12C14.5978 10.8954 13.7023 10 12.5978 10C11.4932 10 10.5978 10.8954 10.5978 12C10.5978 13.1046 11.4932 14 12.5978 14Z" fill="white"/>
<path d="M15.3478 5.75H9.84778C8.91952 5.75 8.02928 6.11875 7.3729 6.77513C6.71653 7.4315 6.34778 8.32174 6.34778 9.25V14.75C6.34778 15.6783 6.71653 16.5685 7.3729 17.2249C8.02928 17.8813 8.91952 18.25 9.84778 18.25H15.3478C16.276 18.25 17.1663 17.8813 17.8227 17.2249C18.479 16.5685 18.8478 15.6783 18.8478 14.75V9.25C18.8478 8.32174 18.479 7.4315 17.8227 6.77513C17.1663 6.11875 16.276 5.75 15.3478 5.75ZM12.5978 15C12.0044 15 11.4244 14.8241 10.9311 14.4944C10.4377 14.1648 10.0532 13.6962 9.82614 13.1481C9.59908 12.5999 9.53967 11.9967 9.65542 11.4147C9.77118 10.8328 10.0569 10.2982 10.4765 9.87868C10.896 9.45912 11.4306 9.1734 12.0125 9.05764C12.5945 8.94189 13.1977 9.0013 13.7458 9.22836C14.294 9.45542 14.7625 9.83994 15.0922 10.3333C15.4218 10.8266 15.5978 11.4067 15.5978 12C15.5978 12.7956 15.2817 13.5587 14.7191 14.1213C14.1565 14.6839 13.3934 15 12.5978 15ZM15.8478 9.5C15.6994 9.5 15.5544 9.45601 15.4311 9.3736C15.3078 9.29119 15.2116 9.17406 15.1549 9.03701C15.0981 8.89997 15.0833 8.74917 15.1122 8.60368C15.1411 8.4582 15.2126 8.32456 15.3174 8.21967C15.4223 8.11478 15.556 8.04335 15.7015 8.01441C15.8469 7.98547 15.9977 8.00032 16.1348 8.05709C16.2718 8.11386 16.389 8.20999 16.4714 8.33332C16.5538 8.45666 16.5978 8.60166 16.5978 8.75C16.5978 8.94891 16.5188 9.13968 16.3781 9.28033C16.2375 9.42098 16.0467 9.5 15.8478 9.5Z" fill="white"/>
</g>
<defs>
<clipPath id="clip0_2160_42972">
<rect width="16" height="16" fill="white" transform="translate(4.59778 4)"/>
</clipPath>
</defs>
</svg>
