<svg width="14" height="14" viewBox="0 0 14 14" fill="none" xmlns="http://www.w3.org/2000/svg">
<path d="M9.76562 0.75H4.26562C3.33737 0.75 2.44713 1.11875 1.79075 1.77513C1.13437 2.4315 0.765625 3.32174 0.765625 4.25V9.75C0.765625 10.6783 1.13437 11.5685 1.79075 12.2249C2.44713 12.8813 3.33737 13.25 4.26562 13.25H9.76562C10.6939 13.25 11.5841 12.8813 12.2405 12.2249C12.8969 11.5685 13.2656 10.6783 13.2656 9.75V4.25C13.2656 3.32174 12.8969 2.4315 12.2405 1.77513C11.5841 1.11875 10.6939 0.75 9.76562 0.75ZM7.01562 10C6.42228 10 5.84226 9.82405 5.34891 9.49441C4.85557 9.16476 4.47105 8.69623 4.24399 8.14805C4.01692 7.59987 3.95751 6.99667 4.07327 6.41473C4.18902 5.83279 4.47475 5.29824 4.8943 4.87868C5.31386 4.45912 5.84841 4.1734 6.43035 4.05764C7.0123 3.94189 7.6155 4.0013 8.16368 4.22836C8.71185 4.45542 9.18039 4.83994 9.51003 5.33329C9.83968 5.82664 10.0156 6.40666 10.0156 7C10.0156 7.79565 9.69955 8.55871 9.13695 9.12132C8.57434 9.68393 7.81127 10 7.01562 10ZM10.2656 4.5C10.1173 4.5 9.97228 4.45601 9.84895 4.3736C9.72561 4.29119 9.62948 4.17406 9.57272 4.03701C9.51595 3.89997 9.5011 3.74917 9.53004 3.60368C9.55898 3.4582 9.63041 3.32456 9.7353 3.21967C9.84018 3.11478 9.97382 3.04335 10.1193 3.01441C10.2648 2.98547 10.4156 3.00032 10.5526 3.05709C10.6897 3.11386 10.8068 3.20999 10.8892 3.33332C10.9716 3.45666 11.0156 3.60166 11.0156 3.75C11.0156 3.94891 10.9366 4.13968 10.796 4.28033C10.6553 4.42098 10.4645 4.5 10.2656 4.5Z" fill="white"/>
</svg>
