<svg width="20" height="20" viewBox="0 0 20 20" fill="none" xmlns="http://www.w3.org/2000/svg">
<path d="M10 5.03448C9.01791 5.03448 8.05788 5.32571 7.24131 5.87132C6.42473 6.41694 5.78829 7.19245 5.41246 8.09978C5.03663 9.00711 4.9383 10.0055 5.12989 10.9687C5.32149 11.9319 5.79441 12.8167 6.48885 13.5112C7.18329 14.2056 8.06806 14.6785 9.03128 14.8701C9.99449 15.0617 10.9929 14.9634 11.9002 14.5875C12.8076 14.2117 13.5831 13.5753 14.1287 12.7587C14.6743 11.9421 14.9655 10.9821 14.9655 10C14.9635 8.68369 14.4397 7.42189 13.5089 6.49112C12.5781 5.56034 11.3163 5.03653 10 5.03448ZM10 14.3448C9.14067 14.3448 8.30065 14.09 7.58614 13.6126C6.87164 13.1352 6.31475 12.4566 5.9859 11.6627C5.65705 10.8688 5.57101 9.99518 5.73866 9.15237C5.9063 8.30955 6.32011 7.53538 6.92774 6.92774C7.53538 6.32011 8.30955 5.9063 9.15237 5.73866C9.99518 5.57101 10.8688 5.65705 11.6627 5.9859C12.4566 6.31475 13.1352 6.87164 13.6126 7.58614C14.09 8.30065 14.3448 9.14067 14.3448 10C14.3448 11.1523 13.8871 12.2574 13.0723 13.0723C12.2574 13.8871 11.1523 14.3448 10 14.3448ZM9.68966 2.86207V1.31034C9.68966 1.22804 9.72235 1.1491 9.78055 1.0909C9.83875 1.0327 9.91769 1 10 1C10.0823 1 10.1612 1.0327 10.2194 1.0909C10.2776 1.1491 10.3103 1.22804 10.3103 1.31034V2.86207C10.3103 2.94438 10.2776 3.02331 10.2194 3.08152C10.1612 3.13972 10.0823 3.17241 10 3.17241C9.91769 3.17241 9.83875 3.13972 9.78055 3.08152C9.72235 3.02331 9.68966 2.94438 9.68966 2.86207ZM3.63793 4.07241C3.60236 4.04574 3.57294 4.01172 3.55165 3.97269C3.53037 3.93365 3.51773 3.89049 3.51457 3.84614C3.51142 3.80179 3.51784 3.75727 3.53338 3.71562C3.54893 3.67396 3.57325 3.63613 3.60469 3.60469C3.63613 3.57325 3.67396 3.54893 3.71562 3.53338C3.75727 3.51784 3.80179 3.51142 3.84614 3.51457C3.89049 3.51773 3.93365 3.53037 3.97269 3.55165C4.01172 3.57294 4.04574 3.60236 4.07241 3.63793L5.17414 4.7319C5.22976 4.7921 5.26064 4.87105 5.26064 4.95302C5.26064 5.03498 5.22976 5.11393 5.17414 5.17414C5.14447 5.203 5.10919 5.22546 5.07049 5.24014C5.03179 5.25482 4.99048 5.2614 4.94914 5.25948C4.90902 5.26079 4.86907 5.2539 4.83171 5.23922C4.79436 5.22455 4.76039 5.2024 4.7319 5.17414L3.63793 4.07241ZM3.17241 10C3.17241 10.0823 3.13972 10.1612 3.08152 10.2194C3.02331 10.2776 2.94438 10.3103 2.86207 10.3103H1.31034C1.22804 10.3103 1.1491 10.2776 1.0909 10.2194C1.0327 10.1612 1 10.0823 1 10C1 9.91769 1.0327 9.83875 1.0909 9.78055C1.1491 9.72235 1.22804 9.68966 1.31034 9.68966H2.86207C2.94438 9.68966 3.02331 9.72235 3.08152 9.78055C3.13972 9.83875 3.17241 9.91769 3.17241 10ZM5.17414 14.8259C5.22976 14.8861 5.26064 14.965 5.26064 15.047C5.26064 15.1289 5.22976 15.2079 5.17414 15.2681L4.07241 16.3621C4.04458 16.3917 4.01092 16.4153 3.97353 16.4313C3.93614 16.4474 3.89585 16.4555 3.85517 16.4552C3.81457 16.455 3.77441 16.4467 3.73709 16.4307C3.69976 16.4147 3.66604 16.3914 3.63793 16.3621C3.60884 16.3339 3.58571 16.3001 3.56991 16.2628C3.55411 16.2255 3.54597 16.1854 3.54597 16.1448C3.54597 16.1043 3.55411 16.0642 3.56991 16.0269C3.58571 15.9896 3.60884 15.9558 3.63793 15.9276L4.7319 14.8259C4.7921 14.7702 4.87105 14.7394 4.95302 14.7394C5.03498 14.7394 5.11393 14.7702 5.17414 14.8259ZM10.3103 17.1379V18.6897C10.3103 18.772 10.2776 18.8509 10.2194 18.9091C10.1612 18.9673 10.0823 19 10 19C9.91769 19 9.83875 18.9673 9.78055 18.9091C9.72235 18.8509 9.68966 18.772 9.68966 18.6897V17.1379C9.68966 17.0556 9.72235 16.9767 9.78055 16.9185C9.83875 16.8603 9.91769 16.8276 10 16.8276C10.0823 16.8276 10.1612 16.8603 10.2194 16.9185C10.2776 16.9767 10.3103 17.0556 10.3103 17.1379ZM16.3621 15.9276C16.3912 15.9558 16.4143 15.9896 16.4301 16.0269C16.4459 16.0642 16.454 16.1043 16.454 16.1448C16.454 16.1854 16.4459 16.2255 16.4301 16.2628C16.4143 16.3001 16.3912 16.3339 16.3621 16.3621C16.334 16.3914 16.3002 16.4147 16.2629 16.4307C16.2256 16.4467 16.1854 16.455 16.1448 16.4552C16.1042 16.4555 16.0639 16.4474 16.0265 16.4313C15.9891 16.4153 15.9554 16.3917 15.9276 16.3621L14.8259 15.2681C14.7672 15.2095 14.7343 15.1299 14.7343 15.047C14.7343 14.964 14.7672 14.8845 14.8259 14.8259C14.8845 14.7672 14.964 14.7343 15.047 14.7343C15.1299 14.7343 15.2095 14.7672 15.2681 14.8259L16.3621 15.9276ZM19 10C19 10.0823 18.9673 10.1612 18.9091 10.2194C18.8509 10.2776 18.772 10.3103 18.6897 10.3103H17.1379C17.0556 10.3103 16.9767 10.2776 16.9185 10.2194C16.8603 10.1612 16.8276 10.0823 16.8276 10C16.8276 9.91769 16.8603 9.83875 16.9185 9.78055C16.9767 9.72235 17.0556 9.68966 17.1379 9.68966H18.6897C18.772 9.68966 18.8509 9.72235 18.9091 9.78055C18.9673 9.83875 19 9.91769 19 10ZM16.3621 3.63793C16.3912 3.66614 16.4143 3.6999 16.4301 3.73722C16.4459 3.77454 16.454 3.81465 16.454 3.85517C16.454 3.8957 16.4459 3.93581 16.4301 3.97312C16.4143 4.01044 16.3912 4.04421 16.3621 4.07241L15.2681 5.17414C15.2396 5.2024 15.2056 5.22455 15.1683 5.23922C15.1309 5.2539 15.091 5.26079 15.0509 5.25948C15.0095 5.2614 14.9682 5.25482 14.9295 5.24014C14.8908 5.22546 14.8555 5.203 14.8259 5.17414C14.7702 5.11393 14.7394 5.03498 14.7394 4.95302C14.7394 4.87105 14.7702 4.7921 14.8259 4.7319L15.9276 3.63793C15.9558 3.60884 15.9896 3.58571 16.0269 3.56991C16.0642 3.55411 16.1043 3.54597 16.1448 3.54597C16.1854 3.54597 16.2255 3.55411 16.2628 3.56991C16.3001 3.58571 16.3339 3.60884 16.3621 3.63793Z" fill="#4F2A8A" stroke="#4F2A8A"/>
</svg>
