<svg width="24" height="24" viewBox="0 0 24 24" fill="none" xmlns="http://www.w3.org/2000/svg">
<path d="M22.1204 1.00024H1.88037C1.39362 1.00024 1.00037 1.39349 1.00037 1.88024V22.1203C1.00037 22.607 1.39362 23.0003 1.88037 23.0003H22.1204C22.6071 23.0003 23.0004 22.607 23.0004 22.1203V1.88024C23.0004 1.39349 22.6071 1.00024 22.1204 1.00024ZM19.0404 6.657L17.9184 7.73225C17.8194 7.8065 17.7726 7.9275 17.7919 8.04575V15.9575C17.7726 16.0785 17.8194 16.1995 17.9184 16.271L19.0184 17.3463V17.5855H13.4964V17.3572L14.6321 16.2545C14.7449 16.1417 14.7449 16.1087 14.7449 15.941V9.539L11.5824 17.558H11.1561L7.47662 9.539V14.9152C7.44362 15.1407 7.52337 15.369 7.68287 15.5312L9.16237 17.3215V17.5607H4.96037V17.3215L6.43987 15.5312C6.51782 15.4507 6.57583 15.3531 6.60926 15.2461C6.64268 15.1391 6.6506 15.0258 6.63237 14.9152V8.70025C6.65162 8.527 6.58562 8.35925 6.45362 8.241L5.13912 6.657V6.41775H9.22287L12.3744 13.334L15.1491 6.42325H19.0404V6.657Z" fill="#E5E7EB"/>
</svg>
