<svg width="24" height="24" viewBox="0 0 24 24" fill="none" xmlns="http://www.w3.org/2000/svg">
<path d="M22.1205 1.00049H1.88049C1.39374 1.00049 1.00049 1.39374 1.00049 1.88049V22.1205C1.00049 22.6072 1.39374 23.0005 1.88049 23.0005H22.1205C22.6072 23.0005 23.0005 22.6072 23.0005 22.1205V1.88049C23.0005 1.39374 22.6072 1.00049 22.1205 1.00049ZM19.0405 6.65724L17.9185 7.73249C17.8195 7.80674 17.7727 7.92774 17.792 8.04599V15.9577C17.7727 16.0787 17.8195 16.1997 17.9185 16.2712L19.0185 17.3465V17.5857H13.4965V17.3575L14.6322 16.2547C14.745 16.142 14.745 16.109 14.745 15.9412V9.53924L11.5825 17.5582H11.1562L7.47674 9.53924V14.9155C7.44374 15.141 7.52349 15.3692 7.68299 15.5315L9.16249 17.3217V17.561H4.96049V17.3217L6.43999 15.5315C6.51794 15.451 6.57595 15.3533 6.60938 15.2463C6.64281 15.1394 6.65072 15.0261 6.63249 14.9155V8.70049C6.65174 8.52724 6.58574 8.35949 6.45374 8.24124L5.13924 6.65724V6.41799H9.22299L12.3745 13.3342L15.1492 6.42349H19.0405V6.65724Z" fill="url(#paint0_linear_761_8404)"/>
<defs>
<linearGradient id="paint0_linear_761_8404" x1="6.50049" y1="2.47421" x2="17.5005" y2="21.5268" gradientUnits="userSpaceOnUse">
<stop offset="0.34" stop-color="#F525D0"/>
<stop offset="1" stop-color="#7A2CF3"/>
</linearGradient>
</defs>
</svg>
