<svg width="36" height="36" viewBox="0 0 36 36" fill="none" xmlns="http://www.w3.org/2000/svg">
<rect x="36" y="36" width="36" height="36" rx="18" transform="rotate(-180 36 36)" fill="#374151"/>
<path fill-rule="evenodd" clip-rule="evenodd" d="M19.9366 17.9979L14.6136 23.2171L14.6071 23.2241C14.3359 23.5159 14.3343 23.9713 14.6512 24.2635C14.7982 24.399 15.0165 24.4799 15.2165 24.4799C15.4671 24.4799 15.6579 24.3777 15.8031 24.2437L15.8081 24.2391L21.2074 18.9254L21.208 18.9247C21.7342 18.4104 21.7231 17.5819 21.2153 17.0587L21.2118 17.055L15.8079 11.7565L15.8031 11.7521C15.5161 11.4875 15.0027 11.4083 14.6512 11.7324C14.3657 11.9956 14.2792 12.4653 14.6243 12.7892L19.9366 17.9979Z" fill="#6B7280"/>
</svg>
