<svg width="36" height="36" viewBox="0 0 36 36" fill="none" xmlns="http://www.w3.org/2000/svg">
<rect x="36" y="36" width="36" height="36" rx="18" transform="rotate(-180 36 36)" fill="#374151"/>
<path fill-rule="evenodd" clip-rule="evenodd" d="M16.0625 18.002L21.3854 12.7828L21.3919 12.7758C21.6632 12.484 21.6647 12.0286 21.3478 11.7364C21.2009 11.6009 20.9825 11.5199 20.7826 11.5199C20.5319 11.5199 20.3412 11.6222 20.1959 11.7561L20.1909 11.7608L14.7916 17.0745L14.791 17.0751C14.2648 17.5895 14.2759 18.418 14.7837 18.9412L14.7873 18.9449L20.1912 24.2434L20.1959 24.2478C20.4829 24.5124 20.9963 24.5916 21.3478 24.2675C21.6333 24.0043 21.7198 23.5346 21.3747 23.2107L16.0625 18.002Z" fill="#6B7280"/>
</svg>
