<svg width="40" height="40" viewBox="0 0 40 40" fill="none" xmlns="http://www.w3.org/2000/svg">
<g filter="url(#filter0_b_190_1767)">
<circle cx="20" cy="20" r="20" fill="url(#paint0_linear_190_1767)"/>
<circle cx="20" cy="20" r="19.5" stroke="url(#paint1_linear_190_1767)"/>
</g>
<path d="M20.3196 18.2483C20.1682 18.2332 19.9865 18.2332 19.8199 18.2483C16.2157 18.1272 13.3535 15.1741 13.3535 11.5396C13.3535 7.82941 16.352 4.8158 20.0773 4.8158C23.7876 4.8158 26.8012 7.82941 26.8012 11.5396C26.786 15.1741 23.9239 18.1272 20.3196 18.2483Z" fill="white"/>
<path d="M12.7486 23.8366C9.0838 26.2899 9.0838 30.2878 12.7486 32.726C16.9131 35.5124 23.743 35.5124 27.9075 32.726C31.5723 30.2727 31.5723 26.2747 27.9075 23.8366C23.7581 21.0653 16.9283 21.0653 12.7486 23.8366Z" fill="white"/>
<defs>
<filter id="filter0_b_190_1767" x="-25" y="-25" width="90" height="90" filterUnits="userSpaceOnUse" color-interpolation-filters="sRGB">
<feFlood flood-opacity="0" result="BackgroundImageFix"/>
<feGaussianBlur in="BackgroundImageFix" stdDeviation="12.5"/>
<feComposite in2="SourceAlpha" operator="in" result="effect1_backgroundBlur_190_1767"/>
<feBlend mode="normal" in="SourceGraphic" in2="effect1_backgroundBlur_190_1767" result="shape"/>
</filter>
<linearGradient id="paint0_linear_190_1767" x1="8" y1="6" x2="33" y2="32" gradientUnits="userSpaceOnUse">
<stop stop-color="#B1B6FF"/>
<stop offset="1" stop-color="#B1B6FF" stop-opacity="0.5"/>
</linearGradient>
<linearGradient id="paint1_linear_190_1767" x1="0" y1="0" x2="41.6003" y2="4.01266" gradientUnits="userSpaceOnUse">
<stop stop-color="white"/>
<stop offset="1" stop-color="white"/>
</linearGradient>
</defs>
</svg>
