<svg width="24" height="24" viewBox="0 0 24 24" fill="none" xmlns="http://www.w3.org/2000/svg">
<path d="M12.16 10.87C12.06 10.86 11.94 10.86 11.83 10.87C9.45 10.79 7.56 8.84 7.56 6.44C7.56 3.99 9.54 2 12 2C14.45 2 16.44 3.99 16.44 6.44C16.43 8.84 14.54 10.79 12.16 10.87Z" stroke="url(#paint0_linear_769_10019)" stroke-width="1.5" stroke-linecap="round" stroke-linejoin="round"/>
<path d="M7.15997 14.56C4.73997 16.18 4.73997 18.82 7.15997 20.43C9.90997 22.27 14.42 22.27 17.17 20.43C19.59 18.81 19.59 16.17 17.17 14.56C14.43 12.73 9.91997 12.73 7.15997 14.56Z" stroke="url(#paint1_linear_769_10019)" stroke-width="1.5" stroke-linecap="round" stroke-linejoin="round"/>
<defs>
<linearGradient id="paint0_linear_769_10019" x1="9.78" y1="2.59418" x2="14.2125" y2="10.2801" gradientUnits="userSpaceOnUse">
<stop offset="0.34" stop-color="#F525D0"/>
<stop offset="1" stop-color="#7A2CF3"/>
</linearGradient>
<linearGradient id="paint1_linear_769_10019" x1="8.75497" y1="13.7651" x2="11.9616" y2="22.5512" gradientUnits="userSpaceOnUse">
<stop offset="0.34" stop-color="#F525D0"/>
<stop offset="1" stop-color="#7A2CF3"/>
</linearGradient>
</defs>
</svg>
