<svg width="25" height="25" viewBox="0 0 25 25" fill="none" xmlns="http://www.w3.org/2000/svg">
<rect opacity="0.5" width="24.08" height="24.08" rx="5" fill="#A0A0A0"/>
<path d="M19.1134 11.8438C19.1134 10.9781 18.4197 10.275 17.5665 10.275C17.1603 10.275 16.7947 10.4313 16.5165 10.6906C15.504 9.97813 14.1384 9.50938 12.6134 9.42188L13.2978 7.13438L15.3947 7.55625C15.4665 8.26562 16.0572 8.81875 16.779 8.81875C16.7822 8.81875 16.7822 8.81875 16.7853 8.81875C16.7884 8.81875 16.7884 8.81875 16.7915 8.81875C17.5603 8.81875 18.1822 8.1875 18.1822 7.40937C18.1822 6.63125 17.5572 6 16.7884 6C16.7853 6 16.7853 6 16.7822 6H16.779C16.2415 6 15.779 6.30625 15.5447 6.75938L12.7415 6.19688L11.779 9.41563L11.7009 9.41875C10.129 9.4875 8.71653 9.9625 7.67903 10.6906C7.40403 10.4313 7.03528 10.275 6.62903 10.275C5.7759 10.275 5.08215 10.9781 5.08215 11.8438C5.08215 12.4563 5.4259 12.9844 5.92903 13.2437C5.90403 13.3969 5.89153 13.55 5.89153 13.7063C5.89465 16.075 8.67278 18 12.0978 18C15.5228 18 18.3009 16.075 18.3009 13.7031C18.3009 13.5469 18.2884 13.3938 18.2665 13.2406C18.7697 12.9813 19.1134 12.4531 19.1134 11.8438ZM6.15403 12.4719C5.94778 12.3313 5.8134 12.0938 5.8134 11.8219C5.8134 11.3906 6.16028 11.0375 6.58528 11.0375C6.76028 11.0375 6.92278 11.0969 7.05403 11.1969C6.63215 11.5687 6.31965 12 6.15403 12.4719ZM16.2634 7.40937C16.2634 7.12187 16.4947 6.88438 16.779 6.88438C17.0634 6.88438 17.2947 7.11875 17.2947 7.40937C17.2947 7.69687 17.0634 7.93438 16.779 7.93438C16.4947 7.93438 16.2634 7.7 16.2634 7.40937ZM9.0509 13.0125C9.0509 12.4625 9.49465 12.0188 10.0447 12.0188C10.5947 12.0188 11.0384 12.4625 11.0384 13.0125C11.0384 13.5625 10.5947 14.0063 10.0447 14.0063C9.49465 14.0063 9.0509 13.5625 9.0509 13.0125ZM12.0978 16.5C10.6103 16.4937 9.72278 15.6094 9.68528 15.5719L10.079 15.1844C10.0853 15.1906 10.8197 15.9406 12.0978 15.9469C13.3572 15.9406 14.104 15.1906 14.1134 15.1844L14.5072 15.5719C14.4697 15.6094 13.5853 16.4937 12.0978 16.5ZM14.1697 14.0063C13.6197 14.0063 13.1759 13.5625 13.1759 13.0125C13.1759 12.4625 13.6197 12.0188 14.1697 12.0188C14.7197 12.0188 15.1634 12.4625 15.1634 13.0125C15.1634 13.5625 14.7165 14.0063 14.1697 14.0063ZM18.0478 12.4844C17.879 12.0062 17.5603 11.5656 17.1322 11.1906C17.2634 11.0875 17.429 11.0281 17.6072 11.0281C18.0415 11.0281 18.3915 11.3844 18.3915 11.825C18.3947 12.1 18.2572 12.3406 18.0478 12.4844Z" fill="white"/>
</svg>
