<svg width="15" height="12" viewBox="0 0 15 12" fill="none" xmlns="http://www.w3.org/2000/svg">
<path d="M14.0312 5.84375C14.0312 4.97813 13.3375 4.275 12.4844 4.275C12.0781 4.275 11.7125 4.43125 11.4344 4.69063C10.4219 3.97813 9.05625 3.50938 7.53125 3.42188L8.21562 1.13438L10.3125 1.55625C10.3844 2.26562 10.975 2.81875 11.6969 2.81875C11.7 2.81875 11.7 2.81875 11.7031 2.81875C11.7063 2.81875 11.7063 2.81875 11.7094 2.81875C12.4781 2.81875 13.1 2.1875 13.1 1.40937C13.1 0.63125 12.475 0 11.7063 0C11.7031 0 11.7031 0 11.7 0H11.6969C11.1594 0 10.6969 0.30625 10.4625 0.759375L7.65938 0.196875L6.69688 3.41563L6.61875 3.41875C5.04688 3.4875 3.63438 3.9625 2.59687 4.69063C2.32187 4.43125 1.95312 4.275 1.54688 4.275C0.69375 4.275 0 4.97813 0 5.84375C0 6.45625 0.34375 6.98437 0.846875 7.24375C0.821875 7.39687 0.809375 7.55 0.809375 7.70625C0.8125 10.075 3.59063 12 7.01562 12C10.4406 12 13.2188 10.075 13.2188 7.70312C13.2188 7.54688 13.2063 7.39375 13.1844 7.24063C13.6875 6.98125 14.0312 6.45312 14.0312 5.84375ZM1.07188 6.47188C0.865625 6.33125 0.73125 6.09375 0.73125 5.82188C0.73125 5.39062 1.07812 5.0375 1.50312 5.0375C1.67812 5.0375 1.84062 5.09688 1.97187 5.19688C1.55 5.56875 1.2375 6 1.07188 6.47188ZM11.1812 1.40937C11.1812 1.12187 11.4125 0.884375 11.6969 0.884375C11.9812 0.884375 12.2125 1.11875 12.2125 1.40937C12.2125 1.69687 11.9812 1.93438 11.6969 1.93438C11.4125 1.93438 11.1812 1.7 11.1812 1.40937ZM3.96875 7.0125C3.96875 6.4625 4.4125 6.01875 4.9625 6.01875C5.5125 6.01875 5.95625 6.4625 5.95625 7.0125C5.95625 7.5625 5.5125 8.00625 4.9625 8.00625C4.4125 8.00625 3.96875 7.5625 3.96875 7.0125ZM7.01562 10.5C5.52812 10.4937 4.64062 9.60938 4.60313 9.57187L4.99687 9.18437C5.00312 9.19063 5.7375 9.94062 7.01562 9.94687C8.275 9.94062 9.02188 9.19063 9.03125 9.18437L9.425 9.57187C9.3875 9.60938 8.50313 10.4937 7.01562 10.5ZM9.0875 8.00625C8.5375 8.00625 8.09375 7.5625 8.09375 7.0125C8.09375 6.4625 8.5375 6.01875 9.0875 6.01875C9.6375 6.01875 10.0813 6.4625 10.0813 7.0125C10.0813 7.5625 9.63437 8.00625 9.0875 8.00625ZM12.9656 6.48438C12.7969 6.00625 12.4781 5.56563 12.05 5.19063C12.1813 5.0875 12.3469 5.02812 12.525 5.02812C12.9594 5.02812 13.3094 5.38437 13.3094 5.825C13.3125 6.1 13.175 6.34062 12.9656 6.48438Z" fill="white"/>
</svg>
