<svg width="24" height="24" viewBox="0 0 24 24" fill="none" xmlns="http://www.w3.org/2000/svg">
<circle cx="12" cy="12" r="12" fill="#F3F4F6"/>
<path fill-rule="evenodd" clip-rule="evenodd" d="M16.3232 16.3953C15.8912 17.1857 15.2632 17.8434 14.5035 18.3011C13.7438 18.7588 12.8798 19 12 19C11.1202 19 10.2562 18.7588 9.49652 18.3011C8.73685 17.8434 8.10882 17.1857 7.67678 16.3953C7.23342 15.6034 7 14.7051 7 13.7907C7 12.8763 7.23342 11.9781 7.67678 11.1862L11.4791 4.31379C11.5312 4.21857 11.6069 4.13933 11.6984 4.08419C11.7899 4.02906 11.894 4 12 4C12.106 4 12.2101 4.02906 12.3016 4.08419C12.3931 4.13933 12.4688 4.21857 12.5209 4.31379L16.3232 11.1862C16.7666 11.9781 17 12.8763 17 13.7907C17 14.7051 16.7666 15.6034 16.3232 16.3953ZM13.0711 7.5833L12.2604 6.11799C12.2344 6.07038 12.1966 6.03076 12.1508 6.00319C12.105 5.97562 12.053 5.96109 12 5.96109C11.947 5.96109 11.895 5.97562 11.8492 6.00319C11.8034 6.03076 11.7656 6.07038 11.7396 6.11799L8.62074 11.755C8.34077 12.2548 8.1672 12.8103 8.11157 13.3847C8.05594 13.959 8.11952 14.539 8.29809 15.086C8.33688 14.8996 8.39024 14.7167 8.45765 14.5391C8.88845 13.4045 9.86252 12.5291 11.3534 11.9368C12.3784 11.5311 13.0326 10.9344 13.2985 10.1631C13.6409 9.16929 13.2833 8.08531 13.0711 7.5833ZM14.4535 10.0819L15.3793 11.755C15.7258 12.374 15.9083 13.0761 15.9083 13.7909C15.9083 14.5057 15.7258 15.2078 15.3793 15.8268C15.0991 16.3386 14.7131 16.7806 14.2487 17.1213C13.7842 17.462 13.2528 17.6931 12.692 17.7981C12.1313 17.9032 11.5549 17.8796 11.004 17.7291C10.4531 17.5787 9.94099 17.305 9.50416 16.9274C9.26277 16.291 9.25415 15.5857 9.4799 14.9432C9.79627 14.1235 10.5579 13.4692 11.7436 12.9979C13.0838 12.4673 13.9545 11.6391 14.3311 10.5369C14.3818 10.3883 14.4227 10.2362 14.4535 10.0819Z" fill="#6ABCF6"/>
</svg>
