<svg width="19" height="28" viewBox="0 0 19 28" fill="none" xmlns="http://www.w3.org/2000/svg">
<path fill-rule="evenodd" clip-rule="evenodd" d="M17.4037 23.1379C16.5972 24.6132 15.4249 25.841 14.0068 26.6954C12.5888 27.5498 10.976 28 9.33366 28C7.69134 28 6.07853 27.5498 4.66049 26.6954C3.24244 25.841 2.07013 24.6132 1.26366 23.1379C0.436035 21.6597 0.000326157 19.9829 0.000326157 18.276C0.000326157 16.5692 0.436035 14.8924 1.26366 13.4142L8.36137 0.585733C8.45855 0.407992 8.59979 0.260085 8.77064 0.157162C8.94149 0.0542393 9.1358 0 9.33366 0C9.53152 0 9.72583 0.0542393 9.89668 0.157162C10.0675 0.260085 10.2088 0.407992 10.306 0.585733L17.4037 13.4142C18.2313 14.8924 18.667 16.5692 18.667 18.276C18.667 19.9829 18.2313 21.6597 17.4037 23.1379ZM11.3331 6.68882L9.81981 3.95357C9.77122 3.8647 9.70059 3.79075 9.61517 3.73929C9.52974 3.68783 9.43259 3.66071 9.33366 3.66071C9.23473 3.66071 9.13757 3.68783 9.05215 3.73929C8.96673 3.79075 8.8961 3.8647 8.84751 3.95357L3.02571 14.476C2.50311 15.4089 2.1791 16.446 2.07525 17.5181C1.97141 18.5902 2.0901 19.6728 2.42343 20.6939C2.49584 20.3459 2.59545 20.0044 2.72128 19.6729C3.52544 17.5551 5.3437 15.9209 8.12664 14.8154C10.0399 14.0581 11.2613 12.9442 11.7575 11.5044C12.3967 9.64933 11.7291 7.62592 11.3331 6.68882ZM13.9136 11.3529L15.6416 14.476C16.2886 15.6314 16.6292 16.9421 16.6292 18.2763C16.6292 19.6106 16.2886 20.9213 15.6416 22.0767C15.1186 23.0321 14.3981 23.8571 13.5312 24.4931C12.6642 25.129 11.6722 25.5604 10.6254 25.7565C9.57867 25.9526 8.50289 25.9086 7.47446 25.6277C6.44603 25.3468 5.49017 24.8359 4.67475 24.1312C4.22416 22.9432 4.20807 21.6267 4.62948 20.4273C5.22002 18.8972 6.6418 17.6757 8.85505 16.796C11.3568 15.8057 12.9821 14.2597 13.6851 12.2022C13.7798 11.9248 13.8561 11.641 13.9136 11.3529Z" fill="#6ABCF6"/>
</svg>
