<svg width="246" height="246" viewBox="0 0 246 246" fill="none" xmlns="http://www.w3.org/2000/svg">
<circle opacity="0.35" cx="123" cy="123" r="123" fill="white"/>
<path d="M111.4 139.2L91.825 119.625C90.175 117.975 88.15 117.15 85.75 117.15C83.35 117.15 81.25 118.05 79.45 119.85C77.8 121.5 76.975 123.6 76.975 126.15C76.975 128.7 77.8 130.8 79.45 132.45L105.1 158.1C106.75 159.75 108.85 160.575 111.4 160.575C113.95 160.575 116.05 159.75 117.7 158.1L168.775 107.025C170.425 105.375 171.25 103.35 171.25 100.95C171.25 98.55 170.35 96.45 168.55 94.65C166.9 93 164.8 92.175 162.25 92.175C159.7 92.175 157.6 93 155.95 94.65L111.4 139.2ZM124 213C111.55 213 99.85 210.636 88.9 205.908C77.95 201.186 68.425 194.775 60.325 186.675C52.225 178.575 45.814 169.05 41.092 158.1C36.364 147.15 34 135.45 34 123C34 110.55 36.364 98.85 41.092 87.9C45.814 76.95 52.225 67.425 60.325 59.325C68.425 51.225 77.95 44.811 88.9 40.083C99.85 35.361 111.55 33 124 33C136.45 33 148.15 35.361 159.1 40.083C170.05 44.811 179.575 51.225 187.675 59.325C195.775 67.425 202.186 76.95 206.908 87.9C211.636 98.85 214 110.55 214 123C214 135.45 211.636 147.15 206.908 158.1C202.186 169.05 195.775 178.575 187.675 186.675C179.575 194.775 170.05 201.186 159.1 205.908C148.15 210.636 136.45 213 124 213Z" fill="white"/>
</svg>
