<svg width="16" height="12" viewBox="0 0 16 12" fill="none" xmlns="http://www.w3.org/2000/svg">
<path d="M15.2416 1.41176C14.6895 1.65882 14.0944 1.82118 13.4778 1.89882C14.1088 1.52471 14.5963 0.931765 14.8258 0.218823C14.2306 0.571765 13.571 0.818824 12.8755 0.96C12.309 0.352941 11.5132 0 10.6097 0C8.92472 0 7.54804 1.35529 7.54804 3.02824C7.54804 3.26824 7.57673 3.50118 7.62692 3.72C5.07434 3.59294 2.80139 2.38588 1.28848 0.557647C1.02319 1.00235 0.872613 1.52471 0.872613 2.07529C0.872613 3.12706 1.41038 4.05882 2.24212 4.58824C1.73303 4.58824 1.2598 4.44706 0.843933 4.23529V4.25647C0.843933 5.72471 1.90512 6.95294 3.31047 7.22824C2.85927 7.34979 2.38559 7.36671 1.92663 7.27765C2.12138 7.8794 2.50278 8.40594 3.01722 8.78325C3.53167 9.16055 4.15329 9.36967 4.7947 9.38118C3.70743 10.2285 2.3597 10.6866 0.972996 10.68C0.72921 10.68 0.485424 10.6659 0.241638 10.6376C1.60397 11.4988 3.22443 12 4.95961 12C10.6097 12 13.7144 7.38353 13.7144 3.38118C13.7144 3.24706 13.7144 3.12 13.7072 2.98588C14.3095 2.56235 14.8258 2.02588 15.2416 1.41176Z" fill="white"/>
</svg>
