<svg width="24" height="24" viewBox="0 0 24 24" fill="none" xmlns="http://www.w3.org/2000/svg">
<path d="M17.9667 0.00927734H6.01427C2.70262 0.00927734 0 2.71189 0 6.02355V17.995C0 21.2876 2.70262 23.9902 6.01427 23.9902H17.9857C21.2974 23.9902 24 21.2876 24 17.976V6.02355C23.981 2.71189 21.2784 0.00927734 17.9667 0.00927734ZM17.9477 8.99262C17.9477 9.12585 17.9477 9.25908 17.9477 9.39231C17.9477 13.3891 14.8644 17.995 9.21174 17.995C7.47978 17.995 5.86201 17.5002 4.51071 16.6437C4.75813 16.6627 4.98652 16.6818 5.23394 16.6818C6.68041 16.6818 7.99366 16.2059 9.04044 15.3875C7.68914 15.3685 6.56622 14.493 6.16653 13.294C6.35686 13.332 6.54718 13.3511 6.73751 13.3511C7.023 13.3511 7.30849 13.313 7.55591 13.2369C6.18557 12.9514 5.13878 11.7333 5.13878 10.2678V10.2297C5.51943 10.4581 6.01427 10.5914 6.50912 10.6104C5.69072 10.0775 5.13878 9.14488 5.13878 8.0981C5.13878 7.54615 5.29104 7.03228 5.55749 6.57549C7.0801 8.40262 9.32593 9.60166 11.8763 9.73489C11.8192 9.5065 11.8002 9.27811 11.8002 9.04972C11.8002 7.37486 13.1705 6.02355 14.8644 6.02355C15.7399 6.02355 16.5393 6.38517 17.1102 6.97518C17.8144 6.84195 18.4615 6.59453 19.0515 6.23291C18.8232 6.93711 18.3283 7.52712 17.7002 7.90777C18.3283 7.83164 18.9183 7.67938 19.4703 7.43196C19.0515 8.041 18.5377 8.57391 17.9477 8.99262Z" fill="url(#paint0_linear_352_774)"/>
<defs>
<linearGradient id="paint0_linear_352_774" x1="2.82353" y1="6.00452" x2="9.92369" y2="23.2465" gradientUnits="userSpaceOnUse">
<stop stop-color="#FA98E8"/>
<stop offset="1" stop-color="#A466F4"/>
</linearGradient>
</defs>
</svg>
