<svg width="24" height="24" viewBox="0 0 24 24" fill="none" xmlns="http://www.w3.org/2000/svg">
<path fill-rule="evenodd" clip-rule="evenodd" d="M24 12C24 18.6274 18.6274 24 12 24C5.37258 24 0 18.6274 0 12C0 5.37258 5.37258 0 12 0C18.6274 0 24 5.37258 24 12ZM12.4296 8.85966C11.2624 9.34513 8.92966 10.3499 5.43142 11.8741C4.86336 12.1 4.56579 12.321 4.5387 12.537C4.49291 12.9022 4.95024 13.046 5.573 13.2419C5.65771 13.2685 5.74548 13.2961 5.83547 13.3253C6.44817 13.5245 7.27235 13.7575 7.70082 13.7668C8.08947 13.7752 8.52326 13.6149 9.00217 13.2861C12.2707 11.0797 13.9579 9.96455 14.0638 9.9405C14.1386 9.92354 14.2421 9.90222 14.3123 9.96458C14.3825 10.0269 14.3756 10.1451 14.3681 10.1767C14.3228 10.3699 12.5277 12.0388 11.5987 12.9025C11.309 13.1718 11.1036 13.3628 11.0616 13.4064C10.9675 13.5041 10.8717 13.5965 10.7795 13.6853C10.2103 14.2341 9.78344 14.6456 10.8031 15.3175C11.2932 15.6404 11.6853 15.9075 12.0765 16.1739C12.5037 16.4648 12.9298 16.755 13.4811 17.1164C13.6216 17.2085 13.7558 17.3041 13.8864 17.3973C14.3836 17.7517 14.8303 18.0702 15.3821 18.0194C15.7028 17.9899 16.034 17.6883 16.2022 16.7891C16.5997 14.6639 17.3812 10.0592 17.5617 8.16171C17.5776 7.99547 17.5577 7.78271 17.5417 7.68931C17.5257 7.59591 17.4923 7.46284 17.3709 7.36434C17.2271 7.24767 17.0052 7.22307 16.9059 7.22482C16.4546 7.23277 15.7621 7.47355 12.4296 8.85966Z" fill="url(#paint0_linear_761_8808)"/>
<defs>
<linearGradient id="paint0_linear_761_8808" x1="6" y1="1.6077" x2="18" y2="22.3923" gradientUnits="userSpaceOnUse">
<stop offset="0.34" stop-color="#F525D0"/>
<stop offset="1" stop-color="#7A2CF3"/>
</linearGradient>
</defs>
</svg>
