<svg width="17" height="12" viewBox="0 0 17 12" fill="none" xmlns="http://www.w3.org/2000/svg">
<path d="M15.6813 2.14881C15.4974 1.46037 14.9552 0.918277 14.2668 0.734277C13.0189 0.399902 8.01562 0.399902 8.01562 0.399902C8.01562 0.399902 3.01228 0.399902 1.76441 0.734277C1.07609 0.918277 0.533875 1.46037 0.349906 2.14881C0.015625 3.39656 0.015625 6 0.015625 6C0.015625 6 0.015625 8.60337 0.349906 9.851C0.533875 10.5394 1.07609 11.0817 1.76441 11.2657C3.01228 11.5999 8.01562 11.5999 8.01562 11.5999C8.01562 11.5999 13.0189 11.5999 14.2668 11.2657C14.9552 11.0817 15.4974 10.5394 15.6813 9.851C16.0156 8.60337 16.0156 6 16.0156 6C16.0156 6 16.0156 3.39656 15.6813 2.14881ZM6.41553 8.40003V3.59993L10.5724 6L6.41553 8.40003Z" fill="white"/>
</svg>
