<svg width="25" height="25" viewBox="0 0 25 25" fill="none" xmlns="http://www.w3.org/2000/svg">
<rect opacity="0.5" x="0.597778" width="24.08" height="24.08" rx="5" fill="#A0A0A0"/>
<g clip-path="url(#clip0_2160_42967)">
<path d="M20.2635 8.14881C20.0795 7.46037 19.5374 6.91828 18.849 6.73428C17.6011 6.3999 12.5978 6.3999 12.5978 6.3999C12.5978 6.3999 7.59443 6.3999 6.34656 6.73428C5.65825 6.91828 5.11603 7.46037 4.93206 8.14881C4.59778 9.39656 4.59778 12 4.59778 12C4.59778 12 4.59778 14.6034 4.93206 15.851C5.11603 16.5394 5.65825 17.0817 6.34656 17.2657C7.59443 17.5999 12.5978 17.5999 12.5978 17.5999C12.5978 17.5999 17.6011 17.5999 18.849 17.2657C19.5374 17.0817 20.0795 16.5394 20.2635 15.851C20.5977 14.6034 20.5977 12 20.5977 12C20.5977 12 20.5977 9.39656 20.2635 8.14881ZM10.9977 14.4V9.59993L15.1545 12L10.9977 14.4Z" fill="white"/>
</g>
<defs>
<clipPath id="clip0_2160_42967">
<rect width="16" height="16" fill="white" transform="translate(4.59778 4)"/>
</clipPath>
</defs>
</svg>
