<svg width="24" height="24" viewBox="0 0 24 24" fill="none" xmlns="http://www.w3.org/2000/svg">
<path fill-rule="evenodd" clip-rule="evenodd" d="M11.5 3C7.35786 3 4 6.35786 4 10.5C4 14.6421 7.35786 18 11.5 18C12.9131 18 14.235 17.6092 15.3633 16.9297L18.7193 21.1247C19.0643 21.556 19.6936 21.6259 20.1249 21.2809C20.5561 20.9359 20.626 20.3066 20.281 19.8753L16.9243 15.6794C18.2103 14.3331 19 12.5088 19 10.5C19 6.35786 15.6421 3 11.5 3ZM15.2377 14.5348C16.3216 13.5302 17 12.0943 17 10.5C17 7.46243 14.5376 5 11.5 5C8.46243 5 6 7.46243 6 10.5C6 13.5376 8.46243 16 11.5 16C12.6567 16 13.7299 15.643 14.6156 15.0331C14.6778 14.9151 14.7647 14.8077 14.8755 14.7191C14.9859 14.6308 15.1094 14.5696 15.2377 14.5348Z" fill="#9CA3AF"/>
</svg>
