<svg width="24" height="24" viewBox="0 0 24 24" fill="none" xmlns="http://www.w3.org/2000/svg">
<path fill-rule="evenodd" clip-rule="evenodd" d="M11.5002 3C7.35811 3 4.00024 6.35786 4.00024 10.5C4.00024 14.6421 7.35811 18 11.5002 18C12.9134 18 14.2352 17.6092 15.3636 16.9297L18.7195 21.1247C19.0645 21.556 19.6938 21.6259 20.1251 21.2809C20.5564 20.9359 20.6263 20.3066 20.2813 19.8753L16.9246 15.6794C18.2105 14.3331 19.0002 12.5088 19.0002 10.5C19.0002 6.35786 15.6424 3 11.5002 3ZM15.238 14.5348C16.3219 13.5302 17.0002 12.0943 17.0002 10.5C17.0002 7.46243 14.5378 5 11.5002 5C8.46268 5 6.00024 7.46243 6.00024 10.5C6.00024 13.5376 8.46268 16 11.5002 16C12.6569 16 13.7302 15.643 14.6158 15.0331C14.678 14.9151 14.7649 14.8077 14.8757 14.7191C14.9862 14.6308 15.1096 14.5696 15.238 14.5348Z" fill="white"/>
</svg>
