<svg width="86" height="86" viewBox="0 0 86 86" fill="none" xmlns="http://www.w3.org/2000/svg">
<g clip-path="url(#clip0_315_10606)">
<path d="M43 86C66.7482 86 86 66.7482 86 43C86 19.2518 66.7482 0 43 0C19.2518 0 0 19.2518 0 43C0 66.7482 19.2518 86 43 86Z" fill="url(#paint0_linear_315_10606)"/>
<path opacity="0.1" d="M58.9121 3.04095C64.5215 10.3055 67.8603 19.4111 67.8603 29.2985C67.8603 53.0477 48.6095 72.2985 24.8603 72.2985C19.2394 72.2985 13.8705 71.219 8.94824 69.2576C16.8112 79.4399 29.1382 86 43.0001 86C66.7493 86 86.0001 66.7492 86.0001 43C86.0001 24.8717 74.784 9.36625 58.9121 3.04095Z" fill="black"/>
<path opacity="0.2" d="M0 43C0 45.2621 0.174669 47.4841 0.512552 49.6517C2.36232 49.9238 4.25504 50.0669 6.18213 50.0669C27.4974 50.0669 44.7753 32.789 44.7753 11.4737C44.7753 7.47926 44.1683 3.62509 43.0401 0C43.0258 0 43.0143 0 43 0C19.2508 0 0 19.2508 0 43Z" fill="white"/>
<path d="M43.0001 81.8795C21.5617 81.8795 4.12061 64.4384 4.12061 43C4.12061 21.5616 21.5617 4.12045 43.0001 4.12045C64.4386 4.12045 81.8797 21.5616 81.8797 43C81.8797 64.4384 64.4386 81.8795 43.0001 81.8795ZM43.0001 4.73609C21.9025 4.73609 4.73624 21.9023 4.73624 43C4.73624 64.0977 21.9025 81.2639 43.0001 81.2639C64.0978 81.2639 81.264 64.0977 81.264 43C81.264 21.9023 64.0978 4.73609 43.0001 4.73609Z" fill="white"/>
<g opacity="0.25" clip-path="url(#clip1_315_10606)">
<path d="M46.4372 13H44.647V57.4584H46.4372V13Z" fill="white"/>
<path d="M62.3026 65C62.568 64.8763 62.7968 64.7456 62.947 64.6027C66.1292 61.5585 65.9965 55.3395 65.9965 55.3395H16C17.3972 60.2638 23.4333 63.5049 26.9072 64.9982H62.3026V65Z" fill="white"/>
<path d="M47.7295 13.9915V25.2063L59.9151 18.6074L47.7295 13.9915Z" fill="white"/>
<path d="M44.6468 18.6231C44.6468 18.6231 34.7666 41.7776 44.6468 51.438C44.6468 51.438 32.5118 50.9083 26.5438 55.3413C26.5438 55.3413 15.2699 33.4431 44.6468 18.6231Z" fill="white"/>
<path d="M46.4351 27.7695C46.4351 27.7695 53.8509 44.2885 46.4351 51.5374C46.4351 51.5374 55.5415 51.9974 60.0214 55.3239C60.0214 55.3239 68.4817 38.892 46.4351 27.7695Z" fill="white"/>
<path d="M48.5169 60.1715C48.5169 61.3268 47.579 62.2625 46.421 62.2625C45.2631 62.2625 44.3252 61.3268 44.3252 60.1715C44.3252 59.0162 45.2631 58.0805 46.421 58.0805C47.579 58.0805 48.5169 59.0162 48.5169 60.1715Z" fill="white"/>
<path d="M53.4684 60.0791C53.4684 60.8511 52.8414 61.4766 52.0677 61.4766C51.294 61.4766 50.667 60.8511 50.667 60.0791C50.667 59.3072 51.294 58.6816 52.0677 58.6816C52.8414 58.6816 53.4684 59.3072 53.4684 60.0791Z" fill="white"/>
<path d="M58.4304 60.0791C58.4304 60.8511 57.8034 61.4766 57.0296 61.4766C56.2559 61.4766 55.6289 60.8511 55.6289 60.0791C55.6289 59.3072 56.2559 58.6816 57.0296 58.6816C57.8034 58.6816 58.4304 59.3072 58.4304 60.0791Z" fill="white"/>
</g>
</g>
<defs>
<linearGradient id="paint0_linear_315_10606" x1="64.504" y1="5.75473" x2="21.4965" y2="80.2458" gradientUnits="userSpaceOnUse">
<stop stop-color="#EB27D5"/>
<stop offset="0.273" stop-color="#D628DB"/>
<stop offset="0.4577" stop-color="#BA2AE2"/>
<stop offset="0.6539" stop-color="#A22BE9"/>
<stop offset="1" stop-color="#832DF2"/>
</linearGradient>
<clipPath id="clip0_315_10606">
<rect width="86" height="86" fill="white"/>
</clipPath>
<clipPath id="clip1_315_10606">
<rect width="50" height="52" fill="white" transform="translate(16 13)"/>
</clipPath>
</defs>
</svg>
