<svg width="846" height="690" viewBox="0 0 846 690" fill="none" xmlns="http://www.w3.org/2000/svg">
<g id="No Results">
<g id="circle">
<path id="Stroke 1" d="M28.9526 316.978V324.099" stroke="#374151" stroke-width="2.921" stroke-linecap="round"/>
<g id="Group 8">
<path id="Stroke 2" d="M12.8511 320.836L18.7118 326.826" stroke="#374151" stroke-width="2.921" stroke-linecap="round"/>
<path id="Stroke 4" d="M6 336.783H14.2831" stroke="#374151" stroke-width="2.921" stroke-linecap="round"/>
<path id="Stroke 6" d="M12.1802 353.014L18.0409 347.024" stroke="#374151" stroke-width="2.921" stroke-linecap="round"/>
</g>
<path id="Stroke 9" d="M28.9526 354.96V347.838" stroke="#374151" stroke-width="2.921" stroke-linecap="round"/>
<path id="Stroke 10" d="M40.903 350.212L36.1216 345.464" stroke="#374151" stroke-width="2.921" stroke-linecap="round"/>
<path id="Stroke 11" d="M50.4579 338.343H43.2891" stroke="#374151" stroke-width="2.921" stroke-linecap="round"/>
<path id="Stroke 12" d="M45.6813 321.726L40.8999 326.474" stroke="#374151" stroke-width="2.921" stroke-linecap="round"/>
<path id="Stroke 13" d="M413.682 6V10.7478" stroke="#374151" stroke-width="2.921" stroke-linecap="round"/>
<path id="Stroke 15" d="M399.344 20.2427H404.126" stroke="#374151" stroke-width="2.921" stroke-linecap="round"/>
<path id="Stroke 16" d="M413.682 34.4863V29.7385" stroke="#374151" stroke-width="2.921" stroke-linecap="round"/>
<path id="Stroke 17" d="M425.631 20.2427H420.85" stroke="#374151" stroke-width="2.921" stroke-linecap="round"/>
<path id="Stroke 18" d="M136.485 205.405V212.526" stroke="#374151" stroke-width="2.921" stroke-linecap="round"/>
<path id="Stroke 19" d="M114.979 226.771H122.147" stroke="#374151" stroke-width="2.921" stroke-linecap="round"/>
<path id="Stroke 20" d="M136.485 245.762V238.64" stroke="#374151" stroke-width="2.921" stroke-linecap="round"/>
<path id="Stroke 21" d="M155.601 226.771H148.433" stroke="#374151" stroke-width="2.921" stroke-linecap="round"/>
<g id="Group 42">
<path id="Stroke 22" d="M650.861 464.25C656.572 464.25 661.204 468.852 661.204 474.527C661.204 480.203 656.572 484.804 650.861 484.804C645.151 484.804 640.519 480.203 640.519 474.527" stroke="#374151" stroke-width="2.921" stroke-linecap="round"/>
<path id="Fill 26" fill-rule="evenodd" clip-rule="evenodd" d="M698.196 371.015C704.337 369.112 713.75 361.651 715.929 353.624C717.905 360.72 726.188 369.112 733.661 369.747C725.248 372.706 717.205 381.497 715.929 388.404C715.06 381.364 703.935 372.041 698.196 371.015Z" fill="#374151"/>
<path id="Fill 28" fill-rule="evenodd" clip-rule="evenodd" d="M67.8384 461.084C70.9098 460.133 75.6144 456.403 76.7038 452.39C77.6917 455.936 81.8323 460.133 85.5691 460.451C81.3637 461.929 77.3428 466.325 76.7038 469.779C76.2696 466.259 70.7069 461.596 67.8384 461.084Z" fill="#374151"/>
<path id="Fill 30" fill-rule="evenodd" clip-rule="evenodd" d="M124.836 130.86C124.836 135.262 121.245 138.828 116.816 138.828C112.386 138.828 108.797 135.262 108.797 130.86C108.797 126.459 112.386 122.891 116.816 122.891C121.245 122.891 124.836 126.459 124.836 130.86Z" fill="#374151"/>
<path id="Fill 32" fill-rule="evenodd" clip-rule="evenodd" d="M660.337 152.255C660.337 159.611 654.334 165.574 646.933 165.574C639.528 165.574 633.527 159.611 633.527 152.255C633.527 144.9 639.528 138.937 646.933 138.937C654.334 138.937 660.337 144.9 660.337 152.255Z" fill="#374151"/>
<path id="Fill 34" fill-rule="evenodd" clip-rule="evenodd" d="M846.001 116.17C846.001 122.006 841.241 126.735 835.37 126.735C829.497 126.735 824.738 122.006 824.738 116.17C824.738 110.334 829.497 105.605 835.37 105.605C841.241 105.605 846.001 110.334 846.001 116.17Z" fill="#374151"/>
<path id="Stroke 36" fill-rule="evenodd" clip-rule="evenodd" d="M274.711 609.6C274.711 613.279 271.711 616.261 268.008 616.261C264.308 616.261 261.308 613.279 261.308 609.6C261.308 605.921 264.308 602.94 268.008 602.94C271.711 602.94 274.711 605.921 274.711 609.6Z" stroke="#374151" stroke-width="2.921" stroke-linecap="round"/>
<path id="Stroke 38" fill-rule="evenodd" clip-rule="evenodd" d="M270.722 79.6662C270.722 84.0688 267.132 87.6348 262.703 87.6348C258.274 87.6348 254.684 84.0688 254.684 79.6662C254.684 75.2656 258.274 71.6975 262.703 71.6975C267.132 71.6975 270.722 75.2656 270.722 79.6662Z" stroke="#374151" stroke-width="2.921" stroke-linecap="round"/>
<path id="Stroke 40" fill-rule="evenodd" clip-rule="evenodd" d="M475.285 683.353C470.161 685.29 464.425 682.732 462.476 677.642C460.526 672.55 463.099 666.849 468.225 664.914C473.348 662.977 479.083 665.533 481.032 670.625C482.984 675.717 480.409 681.416 475.285 683.353Z" stroke="#374151" stroke-width="2.921" stroke-linecap="round"/>
</g>
</g>
<g id="search">
<g id="documents">
<path id="Fill 1" fill-rule="evenodd" clip-rule="evenodd" d="M460.236 495.019H264.276C250.483 495.019 239.193 483.77 239.193 470.022V192.415C239.193 178.667 250.483 167.424 264.276 167.424H460.236C474.034 167.424 485.324 178.667 485.324 192.415V470.022C485.324 483.77 474.034 495.019 460.236 495.019Z" fill="#111827"/>
<path id="Fill 3" fill-rule="evenodd" clip-rule="evenodd" d="M443.507 506.888H247.547C233.754 506.888 222.464 495.64 222.464 481.892V204.284C222.464 190.536 233.754 179.293 247.547 179.293H443.507C457.306 179.293 468.596 190.536 468.596 204.284V481.892C468.596 495.64 457.306 506.888 443.507 506.888Z" fill="#1F2937"/>
<path id="Fill 5" fill-rule="evenodd" clip-rule="evenodd" d="M427.237 516.259H230.872C217.051 516.259 205.737 505.057 205.737 491.366V214.908C205.737 201.217 217.051 190.02 230.872 190.02H427.237C441.064 190.02 452.377 201.217 452.377 214.908V491.366C452.377 505.057 441.064 516.259 427.237 516.259Z" fill="#1E2238"/>
<path id="Fill 8" fill-rule="evenodd" clip-rule="evenodd" d="M427.237 516.259H230.872C217.051 516.259 205.737 505.057 205.737 491.366V214.908C205.737 201.217 217.051 190.02 230.872 190.02H427.237C441.064 190.02 452.377 201.217 452.377 214.908V491.366C452.377 505.057 441.064 516.259 427.237 516.259Z" fill="#4B5563"/>
<path id="Fill 11" fill-rule="evenodd" clip-rule="evenodd" d="M398.934 274.249H253.894C249.752 274.249 246.362 271.044 246.362 267.13C246.362 263.21 249.752 260.005 253.894 260.005H398.934C403.076 260.005 406.467 263.21 406.467 267.13C406.467 271.044 403.076 274.249 398.934 274.249Z" fill="#374151"/>
<path id="Fill 13" fill-rule="evenodd" clip-rule="evenodd" d="M398.934 316.979H253.894C249.752 316.979 246.362 313.775 246.362 309.86C246.362 305.94 249.752 302.736 253.894 302.736H398.934C403.076 302.736 406.467 305.94 406.467 309.86C406.467 313.775 403.076 316.979 398.934 316.979Z" fill="#374151"/>
<path id="Fill 15" fill-rule="evenodd" clip-rule="evenodd" d="M398.934 359.708H253.894C249.752 359.708 246.362 356.504 246.362 352.589C246.362 348.675 249.752 345.465 253.894 345.465H398.934C403.076 345.465 406.467 348.675 406.467 352.589C406.467 356.504 403.076 359.708 398.934 359.708Z" fill="#374151"/>
<path id="Fill 17" fill-rule="evenodd" clip-rule="evenodd" d="M398.934 402.438H253.894C249.752 402.438 246.362 399.234 246.362 395.319C246.362 391.399 249.752 388.195 253.894 388.195H398.934C403.076 388.195 406.467 391.399 406.467 395.319C406.467 399.234 403.076 402.438 398.934 402.438Z" fill="#374151"/>
<path id="Fill 19" fill-rule="evenodd" clip-rule="evenodd" d="M329.603 445.168H253.927C249.767 445.168 246.362 441.964 246.362 438.049C246.362 434.129 249.767 430.925 253.927 430.925H329.603C333.763 430.925 337.168 434.129 337.168 438.049C337.168 441.964 333.763 445.168 329.603 445.168Z" fill="#374151"/>
</g>
<g id="search_2">
<path id="Fill 21" fill-rule="evenodd" clip-rule="evenodd" d="M482.35 389.944C453.348 418.75 408.449 422 375.853 399.76C371.687 396.866 367.722 393.617 364.024 389.944C362.121 388.06 360.327 386.115 358.636 384.067C355.255 379.978 352.293 375.617 349.867 371.111C345.592 363.5 342.685 355.424 341.098 347.076C335.977 320.898 343.633 292.72 364.024 272.473C384.464 252.165 412.834 244.609 439.19 249.647C447.589 251.271 455.726 254.159 463.388 258.357C467.931 260.821 472.261 263.763 476.384 267.121C478.44 268.794 480.398 270.582 482.295 272.473C485.999 276.145 489.319 280.077 492.178 284.221C514.575 316.591 511.297 361.192 482.35 389.944Z" fill="#0D0D0D" fill-opacity="0.1"/>
<path id="Fill 23" fill-rule="evenodd" clip-rule="evenodd" d="M474.233 384.269C444.061 414.249 395.163 414.243 364.985 384.269C334.846 354.329 334.846 305.748 365.024 275.774C395.163 245.834 444.061 245.834 474.2 275.774C504.373 305.748 504.373 354.329 474.233 384.269ZM489.719 260.375C450.989 221.901 388.23 221.901 349.5 260.375C310.776 298.844 310.743 361.229 349.466 399.703C384.715 434.708 439.962 437.865 478.821 409.124C482.616 406.313 486.272 403.161 489.758 399.703C493.239 396.24 496.412 392.609 499.236 388.838C528.168 350.23 524.962 295.386 489.719 260.375Z" fill="#6B7280"/>
<path id="Fill 25" fill-rule="evenodd" clip-rule="evenodd" d="M642.137 544.732L640.511 546.347C629.754 557.039 612.139 557.039 601.376 546.347L502.052 447.678L542.812 407.186L642.137 505.855C652.899 516.547 652.899 534.04 642.137 544.732Z" fill="url(#paint0_linear_703_9901)"/>
<path id="Fill 27" fill-rule="evenodd" clip-rule="evenodd" d="M501.376 385.821L530.727 414.978L509.89 435.672L480.545 406.515C484.418 403.646 488.142 400.431 491.705 396.902C495.258 393.373 498.495 389.668 501.376 385.821Z" fill="#4B5563"/>
<path id="Fill 29" fill-rule="evenodd" clip-rule="evenodd" d="M640.65 504.642L600.149 544.87L592.857 537.622L633.353 497.393L640.65 504.642Z" fill="#8AD2A2"/>
<path id="Fill 31" fill-rule="evenodd" clip-rule="evenodd" d="M545.064 408.579L503.454 449.916L497.272 443.775L538.882 402.438L545.064 408.579Z" fill="#0182A2"/>
<path id="Fill 33" opacity="0.4" fill-rule="evenodd" clip-rule="evenodd" d="M454.259 265.462L352.214 366.83C348.371 359.988 345.758 352.727 344.336 345.223L432.508 257.632C440.057 259.098 447.371 261.688 454.259 265.462Z" fill="#6B7280"/>
<path id="Fill 35" opacity="0.4" fill-rule="evenodd" clip-rule="evenodd" d="M487.714 289.556L377.391 392.943C373.441 390.359 369.68 387.451 366.174 384.165C364.368 382.473 362.661 380.738 361.063 378.905L472.729 274.249C474.685 275.751 476.542 277.351 478.341 279.043C481.848 282.33 485.003 285.848 487.714 289.556Z" fill="#6B7280"/>
</g>
</g>
</g>
<defs>
<linearGradient id="paint0_linear_703_9901" x1="613.169" y1="544.507" x2="539.823" y2="416.625" gradientUnits="userSpaceOnUse">
<stop stop-color="#0182A2"/>
<stop offset="0.69" stop-color="#78CB94"/>
<stop offset="1" stop-color="#A8E88F"/>
</linearGradient>
</defs>
</svg>
