<svg width="54" height="51" viewBox="0 0 54 51" fill="none" xmlns="http://www.w3.org/2000/svg">
<path d="M51 27C51 23.8483 50.3792 20.7274 49.1731 17.8156C47.967 14.9038 46.1992 12.258 43.9706 10.0294C41.742 7.80083 39.0962 6.033 36.1844 4.82689C33.2726 3.62078 30.1517 3 27 3C23.8483 3 20.7274 3.62077 17.8156 4.82689C14.9038 6.033 12.2581 7.80082 10.0294 10.0294C7.80084 12.258 6.03301 14.9038 4.8269 17.8156C3.62078 20.7274 3 23.8483 3 27" stroke="#F2F4F7" stroke-width="6" stroke-linecap="round" stroke-linejoin="round"/>
<path d="M3 27C3 23.2125 3.89638 19.4789 5.61585 16.1042C7.33531 12.7296 9.82905 9.8098 12.8932 7.58359" stroke="#475467" stroke-width="6" stroke-linecap="round" stroke-linejoin="round"/>
</svg>
